<svg width="28" height="28" viewBox="0 0 28 28" fill="none" xmlns="http://www.w3.org/2000/svg">
<path d="M2 18.5V21.2003C2 22.8805 2 23.7201 2.32698 24.3618C2.6146 24.9263 3.07321 25.3857 3.6377 25.6733C4.2788 26 5.11849 26 6.79537 26H14M2 18.5V9.5M2 18.5H14M2 9.5V6.80029C2 5.12014 2 4.27943 2.32698 3.6377C2.6146 3.07321 3.07321 2.6146 3.6377 2.32698C4.27943 2 5.12014 2 6.80029 2H14M2 9.5H14M14 2H21.2003C22.8805 2 23.7201 2 24.3618 2.32698C24.9263 2.6146 25.3857 3.07321 25.6733 3.6377C26 4.2788 26 5.11849 26 6.79537V9.5M14 2V9.5M14 9.5V18.5M14 9.5H26M14 18.5V26M14 18.5H26M14 26H21.2054C22.8822 26 23.7207 26 24.3618 25.6733C24.9263 25.3857 25.3857 24.9263 25.6733 24.3618C26 23.7207 26 22.8822 26 21.2054V18.5M26 18.5V9.5" stroke="white" stroke-width="3" stroke-linecap="round" stroke-linejoin="round"/>
</svg>
