<svg width="36" height="36" viewBox="0 0 36 36" fill="none" xmlns="http://www.w3.org/2000/svg">
<path d="M6 22.5V25.2003C6 26.8805 6 27.7201 6.32698 28.3618C6.6146 28.9263 7.07321 29.3857 7.6377 29.6733C8.2788 30 9.11849 30 10.7954 30H18M6 22.5V13.5M6 22.5H18M6 13.5V10.8003C6 9.12014 6 8.27943 6.32698 7.6377C6.6146 7.07321 7.07321 6.6146 7.6377 6.32698C8.27943 6 9.12014 6 10.8003 6H18M6 13.5H18M18 6H25.2003C26.8805 6 27.7201 6 28.3618 6.32698C28.9263 6.6146 29.3857 7.07321 29.6733 7.6377C30 8.2788 30 9.11849 30 10.7954V13.5M18 6V13.5M18 13.5V22.5M18 13.5H30M18 22.5V30M18 22.5H30M18 30H25.2054C26.8822 30 27.7207 30 28.3618 29.6733C28.9263 29.3857 29.3857 28.9263 29.6733 28.3618C30 27.7207 30 26.8822 30 25.2054V22.5M30 22.5V13.5" stroke="white" stroke-width="3" stroke-linecap="round" stroke-linejoin="round"/>
</svg>
