<svg width="288" height="41" viewBox="0 0 288 41" fill="none" xmlns="http://www.w3.org/2000/svg">
<path d="M6.08 31C5.01333 31 4.02667 30.7333 3.12 30.2C2.21333 29.6667 1.49333 28.9467 0.96 28.04C0.426667 27.1333 0.16 26.1467 0.16 25.08V22.4H6.36V24.76H22.68V19.72H6.08C5.01333 19.72 4.02667 19.4533 3.12 18.92C2.21333 18.3867 1.49333 17.68 0.96 16.8C0.426667 15.8933 0.16 14.8933 0.16 13.8V8.12C0.16 7.02667 0.426667 6.04 0.96 5.16C1.49333 4.25333 2.21333 3.53333 3.12 3C4.02667 2.46667 5.01333 2.2 6.08 2.2H23.04C24.1067 2.2 25.08 2.46667 25.96 3C26.8667 3.53333 27.5867 4.25333 28.12 5.16C28.68 6.04 28.96 7.02667 28.96 8.12V10.8H22.68V8.44H6.36V13.48H23.04C24.1067 13.48 25.08 13.7467 25.96 14.28C26.8667 14.8133 27.5867 15.5333 28.12 16.44C28.68 17.32 28.96 18.3067 28.96 19.4V25.08C28.96 26.1467 28.68 27.1333 28.12 28.04C27.5867 28.9467 26.8667 29.6667 25.96 30.2C25.08 30.7333 24.1067 31 23.04 31H6.08ZM33.285 31V7.8H61.205C62.2717 7.8 63.245 8.06667 64.125 8.6C65.005 9.13333 65.6983 9.84 66.205 10.72C66.7383 11.6 67.005 12.56 67.005 13.6V31H60.925V13.92H53.245V31H47.085V13.92H39.405V31H33.285ZM76.8566 31C75.7899 31 74.8166 30.7333 73.9366 30.2C73.0566 29.6667 72.3499 28.96 71.8166 28.08C71.3099 27.2 71.0566 26.24 71.0566 25.2V16.32H88.4566V13.92H71.0566V7.8H88.7766C89.8432 7.8 90.8166 8.06667 91.6966 8.6C92.5766 9.13333 93.2699 9.84 93.7766 10.72C94.3099 11.6 94.5766 12.56 94.5766 13.6V31H76.8566ZM77.1766 24.88H88.4566V21.68H77.1766V24.88ZM97.7363 31V13.6C97.7363 12.56 98.0029 11.6 98.5363 10.72C99.0696 9.84 99.7763 9.13333 100.656 8.6C101.536 8.06667 102.51 7.8 103.576 7.8H116.376V13.92H103.856V31H97.7363ZM124.671 31C123.604 31 122.631 30.7333 121.751 30.2C120.871 29.6667 120.164 28.96 119.631 28.08C119.098 27.2 118.831 26.24 118.831 25.2V0.919999H124.951V7.8H133.551V13.92H124.951V24.88H133.551V31H124.671Z" fill="#FFD700"/>
<path d="M155.728 31C154.662 31 153.675 30.7333 152.768 30.2C151.862 29.6667 151.142 28.9467 150.608 28.04C150.075 27.1333 149.808 26.1467 149.808 25.08V22.4H156.008V24.76H172.328V19.72H155.728C154.662 19.72 153.675 19.4533 152.768 18.92C151.862 18.3867 151.142 17.68 150.608 16.8C150.075 15.8933 149.808 14.8933 149.808 13.8V8.12C149.808 7.02667 150.075 6.04 150.608 5.16C151.142 4.25333 151.862 3.53333 152.768 3C153.675 2.46667 154.662 2.2 155.728 2.2H172.688C173.755 2.2 174.728 2.46667 175.608 3C176.515 3.53333 177.235 4.25333 177.768 5.16C178.328 6.04 178.608 7.02667 178.608 8.12V10.8H172.328V8.44H156.008V13.48H172.688C173.755 13.48 174.728 13.7467 175.608 14.28C176.515 14.8133 177.235 15.5333 177.768 16.44C178.328 17.32 178.608 18.3067 178.608 19.4V25.08C178.608 26.1467 178.328 27.1333 177.768 28.04C177.235 28.9467 176.515 29.6667 175.608 30.2C174.728 30.7333 173.755 31 172.688 31H155.728ZM182.933 40.2V7.8H200.653C201.72 7.8 202.693 8.06667 203.573 8.6C204.453 9.13333 205.147 9.84 205.653 10.72C206.187 11.6 206.453 12.56 206.453 13.6V25.2C206.453 26.24 206.187 27.2 205.653 28.08C205.147 28.96 204.453 29.6667 203.573 30.2C202.693 30.7333 201.72 31 200.653 31H189.053V40.2H182.933ZM189.053 24.88H200.333V13.92H189.053V24.88ZM215.176 31C214.136 31 213.176 30.7333 212.296 30.2C211.416 29.6667 210.709 28.96 210.176 28.08C209.643 27.2 209.376 26.24 209.376 25.2V13.6C209.376 12.56 209.643 11.6 210.176 10.72C210.709 9.84 211.416 9.13333 212.296 8.6C213.176 8.06667 214.136 7.8 215.176 7.8H227.096C228.163 7.8 229.136 8.06667 230.016 8.6C230.896 9.13333 231.589 9.84 232.096 10.72C232.629 11.6 232.896 12.56 232.896 13.6V22.48H215.496V24.88H232.896V31H215.176ZM215.496 17.12H226.776V13.92H215.496V17.12ZM237.191 31V7.8H254.911C255.978 7.8 256.951 8.06667 257.831 8.6C258.711 9.13333 259.405 9.84 259.911 10.72C260.445 11.6 260.711 12.56 260.711 13.6V31H254.591V13.92H243.311V31H237.191ZM269.603 31C268.536 31 267.563 30.7333 266.683 30.2C265.803 29.6667 265.096 28.96 264.563 28.08C264.056 27.2 263.803 26.24 263.803 25.2V13.6C263.803 12.56 264.056 11.6 264.563 10.72C265.096 9.84 265.803 9.13333 266.683 8.6C267.563 8.06667 268.536 7.8 269.603 7.8H281.243V0.199998H287.363V31H269.603ZM269.963 24.88H281.243V13.92H269.963V24.88Z" fill="white"/>
</svg>
