<svg width="28" height="28" viewBox="0 0 28 28" fill="none" xmlns="http://www.w3.org/2000/svg">
<path d="M1 13H7.66667M1 13C1 19.6274 6.37258 25 13 25M1 13C1 6.37258 6.37258 1 13 1M7.66667 13H18.3333M7.66667 13C7.66667 19.6274 10.0545 25 13 25M7.66667 13C7.66667 6.37258 10.0545 1 13 1M18.3333 13H25M18.3333 13C18.3333 6.37258 15.9455 1 13 1M18.3333 13C18.3333 19.6274 15.9455 25 13 25M25 13C25 6.37258 19.6274 1 13 1M25 13C25 19.6274 19.6274 25 13 25" stroke="white" stroke-width="2" stroke-linecap="round" stroke-linejoin="round"/>
</svg>
