<svg width="32" height="32" viewBox="0 0 32 32" fill="none" xmlns="http://www.w3.org/2000/svg">
<path d="M4 16H10.6667M4 16C4 22.6274 9.37258 28 16 28M4 16C4 9.37258 9.37258 4 16 4M10.6667 16H21.3333M10.6667 16C10.6667 22.6274 13.0545 28 16 28M10.6667 16C10.6667 9.37258 13.0545 4 16 4M21.3333 16H28M21.3333 16C21.3333 9.37258 18.9455 4 16 4M21.3333 16C21.3333 22.6274 18.9455 28 16 28M28 16C28 9.37258 22.6274 4 16 4M28 16C28 22.6274 22.6274 28 16 28" stroke="white" stroke-width="2" stroke-linecap="round" stroke-linejoin="round"/>
</svg>
