<svg width="39" height="39" viewBox="0 0 39 39" fill="none" xmlns="http://www.w3.org/2000/svg">
<g filter="url(#filter0_d_134_276)">
<circle cx="19.5" cy="18.5" r="17.5" fill="#FD5F40"/>
<path d="M15.3101 25C15.1634 25 15.0434 24.9533 14.9501 24.86C14.8567 24.7667 14.8101 24.6467 14.8101 24.5V11.5C14.8101 11.3533 14.8567 11.2333 14.9501 11.14C15.0434 11.0467 15.1634 11 15.3101 11H20.7701C21.8501 11 22.7834 11.1667 23.5701 11.5C24.3701 11.8333 24.9901 12.34 25.4301 13.02C25.8834 13.6867 26.1101 14.52 26.1101 15.52C26.1101 16.5333 25.8834 17.3733 25.4301 18.04C24.9901 18.6933 24.3701 19.18 23.5701 19.5C22.7834 19.82 21.8501 19.98 20.7701 19.98H18.0901V24.5C18.0901 24.6467 18.0434 24.7667 17.9501 24.86C17.8567 24.9533 17.7367 25 17.5901 25H15.3101ZM18.0301 17.5H20.6701C21.3501 17.5 21.8767 17.3333 22.2501 17C22.6367 16.6667 22.8301 16.1667 22.8301 15.5C22.8301 14.9133 22.6567 14.4333 22.3101 14.06C21.9767 13.6867 21.4301 13.5 20.6701 13.5H18.0301V17.5Z" fill="black"/>
</g>
<defs>
<filter id="filter0_d_134_276" x="0" y="0" width="39" height="39" filterUnits="userSpaceOnUse" color-interpolation-filters="sRGB">
<feFlood flood-opacity="0" result="BackgroundImageFix"/>
<feColorMatrix in="SourceAlpha" type="matrix" values="0 0 0 0 0 0 0 0 0 0 0 0 0 0 0 0 0 0 127 0" result="hardAlpha"/>
<feOffset dy="1"/>
<feGaussianBlur stdDeviation="1"/>
<feComposite in2="hardAlpha" operator="out"/>
<feColorMatrix type="matrix" values="0 0 0 0 0 0 0 0 0 0 0 0 0 0 0 0 0 0 0.25 0"/>
<feBlend mode="normal" in2="BackgroundImageFix" result="effect1_dropShadow_134_276"/>
<feBlend mode="normal" in="SourceGraphic" in2="effect1_dropShadow_134_276" result="shape"/>
</filter>
</defs>
</svg>
