<svg width="217" height="31" viewBox="0 0 217 31" fill="none" xmlns="http://www.w3.org/2000/svg">
<path d="M5.06 24C4.26 24 3.52 23.8 2.84 23.4C2.16 23 1.62 22.46 1.22 21.78C0.82 21.1 0.62 20.36 0.62 19.56V17.55H5.27V19.32H17.51V15.54H5.06C4.26 15.54 3.52 15.34 2.84 14.94C2.16 14.54 1.62 14.01 1.22 13.35C0.82 12.67 0.62 11.92 0.62 11.1V6.84C0.62 6.02 0.82 5.28 1.22 4.62C1.62 3.94 2.16 3.4 2.84 3C3.52 2.6 4.26 2.4 5.06 2.4H17.78C18.58 2.4 19.31 2.6 19.97 3C20.65 3.4 21.19 3.94 21.59 4.62C22.01 5.28 22.22 6.02 22.22 6.84V8.85H17.51V7.08H5.27V10.86H17.78C18.58 10.86 19.31 11.06 19.97 11.46C20.65 11.86 21.19 12.4 21.59 13.08C22.01 13.74 22.22 14.48 22.22 15.3V19.56C22.22 20.36 22.01 21.1 21.59 21.78C21.19 22.46 20.65 23 19.97 23.4C19.31 23.8 18.58 24 17.78 24H5.06ZM25.4638 24V6.6H46.4038C47.2038 6.6 47.9338 6.8 48.5938 7.2C49.2538 7.6 49.7738 8.13 50.1538 8.79C50.5538 9.45 50.7538 10.17 50.7538 10.95V24H46.1938V11.19H40.4338V24H35.8138V11.19H30.0538V24H25.4638ZM58.1424 24C57.3424 24 56.6124 23.8 55.9524 23.4C55.2924 23 54.7624 22.47 54.3624 21.81C53.9824 21.15 53.7924 20.43 53.7924 19.65V12.99H66.8424V11.19H53.7924V6.6H67.0824C67.8824 6.6 68.6124 6.8 69.2724 7.2C69.9324 7.6 70.4524 8.13 70.8324 8.79C71.2324 9.45 71.4324 10.17 71.4324 10.95V24H58.1424ZM58.3824 19.41H66.8424V17.01H58.3824V19.41ZM73.8022 24V10.95C73.8022 10.17 74.0022 9.45 74.4022 8.79C74.8022 8.13 75.3322 7.6 75.9922 7.2C76.6522 6.8 77.3822 6.6 78.1822 6.6H87.7822V11.19H78.3922V24H73.8022ZM94.0032 24C93.2032 24 92.4732 23.8 91.8132 23.4C91.1532 23 90.6232 22.47 90.2232 21.81C89.8232 21.15 89.6232 20.43 89.6232 19.65V1.44H94.2132V6.6H100.663V11.19H94.2132V19.41H100.663V24H94.0032Z" fill="#FFD700"/>
<path d="M117.296 24C116.496 24 115.756 23.8 115.076 23.4C114.396 23 113.856 22.46 113.456 21.78C113.056 21.1 112.856 20.36 112.856 19.56V17.55H117.506V19.32H129.746V15.54H117.296C116.496 15.54 115.756 15.34 115.076 14.94C114.396 14.54 113.856 14.01 113.456 13.35C113.056 12.67 112.856 11.92 112.856 11.1V6.84C112.856 6.02 113.056 5.28 113.456 4.62C113.856 3.94 114.396 3.4 115.076 3C115.756 2.6 116.496 2.4 117.296 2.4H130.016C130.816 2.4 131.546 2.6 132.206 3C132.886 3.4 133.426 3.94 133.826 4.62C134.246 5.28 134.456 6.02 134.456 6.84V8.85H129.746V7.08H117.506V10.86H130.016C130.816 10.86 131.546 11.06 132.206 11.46C132.886 11.86 133.426 12.4 133.826 13.08C134.246 13.74 134.456 14.48 134.456 15.3V19.56C134.456 20.36 134.246 21.1 133.826 21.78C133.426 22.46 132.886 23 132.206 23.4C131.546 23.8 130.816 24 130.016 24H117.296ZM137.7 30.9V6.6H150.99C151.79 6.6 152.52 6.8 153.18 7.2C153.84 7.6 154.36 8.13 154.74 8.79C155.14 9.45 155.34 10.17 155.34 10.95V19.65C155.34 20.43 155.14 21.15 154.74 21.81C154.36 22.47 153.84 23 153.18 23.4C152.52 23.8 151.79 24 150.99 24H142.29V30.9H137.7ZM142.29 19.41H150.75V11.19H142.29V19.41ZM161.882 24C161.102 24 160.382 23.8 159.722 23.4C159.062 23 158.532 22.47 158.132 21.81C157.732 21.15 157.532 20.43 157.532 19.65V10.95C157.532 10.17 157.732 9.45 158.132 8.79C158.532 8.13 159.062 7.6 159.722 7.2C160.382 6.8 161.102 6.6 161.882 6.6H170.822C171.622 6.6 172.352 6.8 173.012 7.2C173.672 7.6 174.192 8.13 174.572 8.79C174.972 9.45 175.172 10.17 175.172 10.95V17.61H162.122V19.41H175.172V24H161.882ZM162.122 13.59H170.582V11.19H162.122V13.59ZM178.393 24V6.6H191.683C192.483 6.6 193.213 6.8 193.873 7.2C194.533 7.6 195.053 8.13 195.433 8.79C195.833 9.45 196.033 10.17 196.033 10.95V24H191.443V11.19H182.983V24H178.393ZM202.702 24C201.902 24 201.172 23.8 200.512 23.4C199.852 23 199.322 22.47 198.922 21.81C198.542 21.15 198.352 20.43 198.352 19.65V10.95C198.352 10.17 198.542 9.45 198.922 8.79C199.322 8.13 199.852 7.6 200.512 7.2C201.172 6.8 201.902 6.6 202.702 6.6H211.432V0.899999H216.022V24H202.702ZM202.972 19.41H211.432V11.19H202.972V19.41Z" fill="white"/>
</svg>
